<svg width="100" height="100" viewBox="0 0 100 100" fill="none" xmlns="http://www.w3.org/2000/svg">
<g id="credit_card_24dp_FILL0_wght400_GRAD0_opsz24 1">
<path id="Vector" d="M91.6666 25V75C91.6666 77.2917 90.8506 79.2535 89.2187 80.8854C87.5867 82.5174 85.6249 83.3334 83.3333 83.3334H16.6666C14.3749 83.3334 12.4131 82.5174 10.7812 80.8854C9.14922 79.2535 8.33325 77.2917 8.33325 75V25C8.33325 22.7084 9.14922 20.7465 10.7812 19.1146C12.4131 17.4827 14.3749 16.6667 16.6666 16.6667H83.3333C85.6249 16.6667 87.5867 17.4827 89.2187 19.1146C90.8506 20.7465 91.6666 22.7084 91.6666 25ZM16.6666 33.3334H83.3333V25H16.6666V33.3334ZM16.6666 50V75H83.3333V50H16.6666Z" fill="#FFF5D6"/>
</g>
</svg>
