<svg width="100" height="104" viewBox="0 0 100 104" fill="none" xmlns="http://www.w3.org/2000/svg">
<g id="money icon">
<path id="Vector" d="M58.3334 55.8594C54.8612 55.8594 51.9098 54.6061 49.4792 52.0996C47.0487 49.5931 45.8334 46.5495 45.8334 42.9688C45.8334 39.388 47.0487 36.3444 49.4792 33.8379C51.9098 31.3314 54.8612 30.0781 58.3334 30.0781C61.8056 30.0781 64.757 31.3314 67.1876 33.8379C69.6181 36.3444 70.8334 39.388 70.8334 42.9688C70.8334 46.5495 69.6181 49.5931 67.1876 52.0996C64.757 54.6061 61.8056 55.8594 58.3334 55.8594ZM29.1667 68.75C26.8751 68.75 24.9133 67.9085 23.2813 66.2256C21.6494 64.5426 20.8334 62.5195 20.8334 60.1562V25.7812C20.8334 23.418 21.6494 21.3949 23.2813 19.7119C24.9133 18.029 26.8751 17.1875 29.1667 17.1875H87.5001C89.7917 17.1875 91.7535 18.029 93.3855 19.7119C95.0174 21.3949 95.8334 23.418 95.8334 25.7812V60.1562C95.8334 62.5195 95.0174 64.5426 93.3855 66.2256C91.7535 67.9085 89.7917 68.75 87.5001 68.75H29.1667ZM37.5001 60.1562H79.1667C79.1667 57.793 79.9827 55.7699 81.6147 54.0869C83.2466 52.404 85.2084 51.5625 87.5001 51.5625V34.375C85.2084 34.375 83.2466 33.5335 81.6147 31.8506C79.9827 30.1676 79.1667 28.1445 79.1667 25.7812H37.5001C37.5001 28.1445 36.6841 30.1676 35.0522 31.8506C33.4202 33.5335 31.4584 34.375 29.1667 34.375V51.5625C31.4584 51.5625 33.4202 52.404 35.0522 54.0869C36.6841 55.7699 37.5001 57.793 37.5001 60.1562ZM83.3334 85.9375H12.5001C10.2084 85.9375 8.24661 85.096 6.61466 83.4131C4.98272 81.7301 4.16675 79.707 4.16675 77.3438V30.0781H12.5001V77.3438H83.3334V85.9375Z" fill="#FFF5D6"/>
</g>
</svg>
